<svg width="800" height="323" viewBox="0 0 800 323" fill="none" xmlns="http://www.w3.org/2000/svg">
<path fill-rule="evenodd" clip-rule="evenodd" d="M0 248.535L58.8014 246.988L194.052 246.987L194.052 320.288L236.75 320.288L236.751 0.952759L0 248.535ZM194.052 206.755H96.2113L194.052 101.533L194.052 206.755Z" fill="black" fill-opacity="0.6"/>
<path fill-rule="evenodd" clip-rule="evenodd" d="M622.05 246.988L563.249 248.535L800 0.952759L799.999 320.288L757.301 320.288L757.301 246.987L622.05 246.988ZM757.301 101.533L757.301 206.755H659.46L757.301 101.533Z" fill="black" fill-opacity="0.6"/>
<path fill-rule="evenodd" clip-rule="evenodd" d="M420.89 38.09C402.947 38.09 386.469 41.5735 371.393 48.4906L371.384 48.4949C356.512 55.4381 343.768 65.092 333.113 77.4805C322.453 89.8769 314.088 104.818 308.066 122.381L308.06 122.4L308.059 122.403C302.064 139.64 299.033 158.843 299.033 180.063C299.033 199.474 301.676 217.69 306.934 234.733L306.942 234.76C312.45 251.514 320.436 266.337 330.884 279.274L330.892 279.283C342.085 293.212 355.345 303.857 370.687 311.281C386.009 318.694 402.721 322.422 420.89 322.422C438.533 322.422 454.997 318.827 470.337 311.658L470.357 311.649C485.664 304.235 498.905 293.481 510.09 279.313L510.1 279.3L510.111 279.286L510.122 279.274C520.572 266.335 528.564 251.373 534.075 234.339L534.08 234.321L534.087 234.3L534.094 234.281C539.854 217.251 542.746 199.187 542.746 180.063C542.746 159.392 539.596 140.462 533.353 123.23L533.344 123.205L533.335 123.18L533.326 123.155C527.312 105.612 518.831 90.6848 507.927 78.2941L507.905 78.2697L507.884 78.245L507.863 78.2197C497.204 65.578 484.462 55.8071 469.604 48.8731L469.584 48.8642L469.566 48.8554L469.546 48.8459C454.743 41.6911 438.548 38.09 420.89 38.09ZM393.894 85.6697C402.904 81.5843 411.915 79.4827 420.89 79.4827C443.45 79.4827 461.827 88.3809 475.612 106.025C482.544 114.898 487.672 126.216 491.138 139.79L491.145 139.817C494.849 153.328 496.712 166.747 496.712 180.063C496.712 196.191 494.597 210.64 490.274 223.338L490.265 223.367L490.263 223.371C485.981 235.68 480.18 246.254 472.799 255.003L472.797 255.006C465.716 263.447 457.602 269.936 448.447 274.375C439.376 278.773 430.177 281.03 420.89 281.03C407.78 281.03 396.19 278.017 386.311 271.807L386.284 271.791L386.258 271.774L386.232 271.757C376.676 265.477 368.744 257.545 362.465 247.989L362.423 247.926L362.383 247.861C356.446 238.146 352.017 227.388 349.075 215.618L349.069 215.594L349.068 215.591C346.148 203.645 344.681 191.8 344.681 180.063C344.681 162.914 346.921 147.911 351.534 135.157C356.064 122.633 361.865 112.171 369.026 103.908L369.054 103.876L369.083 103.843C376.424 95.6868 384.68 89.5929 393.861 85.6845L393.894 85.6697Z" fill="black" fill-opacity="0.6"/>
</svg>
